# xmcd
#
# Track frame offsets: 
#        150
#        2556
#        18468
#        36851
#        55531
#        75615
#        97221
#        114555
#        135596
#        154956
#        178272
#        192924
#
# Disc length: 2811 seconds
#
# Revision: 0
# Processed by: cddbd v1.5.2PL0 Copyright (c) Steve Scherf et al.
# Submitted via: ExactAudioCopy v0.95b3
#
DISCID=980af90c
DTITLE=Soulgate's Dawn - Deathtrap To Escape
DYEAR=2006
DGENRE=Metal
TTITLE0=Intro
TTITLE1=Emotionless
TTITLE2=Believe
TTITLE3=Goodbye
TTITLE4=Free Fall
TTITLE5=Last Bloody Kiss
TTITLE6=Broken Angels
TTITLE7=Undying Allegiance
TTITLE8=Breath While Im Drowning
TTITLE9=Struggled Thoughts
TTITLE10=Fight The Future
TTITLE11=Prophecy
EXTD=
EXTT0=
EXTT1=
EXTT2=
EXTT3=
EXTT4=
EXTT5=
EXTT6=
EXTT7=
EXTT8=
EXTT9=
EXTT10=
EXTT11=
PLAYORDER=
